<?xml version="1.0" encoding="UTF-8"?>
<svg version="1.1" xmlns="http://www.w3.org/2000/svg" width="200" height="200">
<path d="M0 0 C66 0 132 0 200 0 C200 66 200 132 200 200 C134 200 68 200 0 200 C0 134 0 68 0 0 Z " fill="#243B5A" transform="translate(0,0)"/>
<path d="M0 0 C0 4 0 4 -1.375 5.75 C-3 7 -3 7 -5 7 C-5.66 8.65 -6.32 10.3 -7 12 C-7.86882812 11.94199219 -8.73765625 11.88398437 -9.6328125 11.82421875 C-17.01280735 11.2640519 -17.01280735 11.2640519 -23.625 13.9375 C-29.13442769 21.04176202 -29.17460258 27.92062842 -30 37 C-22.08 37 -14.16 37 -6 37 C-6 41.29 -6 45.58 -6 50 C-13.92 50 -21.84 50 -30 50 C-30 73.76 -30 97.52 -30 122 C-35.28 122 -40.56 122 -46 122 C-46 98.57 -46 75.14 -46 51 C-50.95 51 -55.9 51 -61 51 C-61 46.05 -61 41.1 -61 36 C-56.05 36 -51.1 36 -46 36 C-46.04125 34.02 -46.0825 32.04 -46.125 30 C-46.1163358 22.02027193 -44.89373113 16.07951114 -41 9 C-40.34 9 -39.68 9 -39 9 C-38.6596875 7.824375 -38.6596875 7.824375 -38.3125 6.625 C-37 4 -37 4 -34.375 2.6875 C-33.199375 2.3471875 -33.199375 2.3471875 -32 2 C-32 1.34 -32 0.68 -32 0 C-20.91371803 -4.12056498 -11.08628197 -4.12056498 0 0 Z " fill="#8BA1BD" transform="translate(130,41)"/>
<path d="M0 0 C0 4 0 4 -1.375 5.75 C-3 7 -3 7 -5 7 C-5.66 8.65 -6.32 10.3 -7 12 C-7.86882812 11.94199219 -8.73765625 11.88398437 -9.6328125 11.82421875 C-16.97082766 11.25877092 -16.97082766 11.25877092 -23.5625 13.875 C-26.73335781 17.94020232 -28.39336075 22.13282817 -30 27 C-30.66 26.67 -31.32 26.34 -32 26 C-32.45703125 23.8203125 -32.45703125 23.8203125 -32.8125 21.125 C-33.50333027 16.85177847 -33.50333027 16.85177847 -36.625 13.875 C-37.800625 13.441875 -37.800625 13.441875 -39 13 C-39.6496875 13.86625 -39.6496875 13.86625 -40.3125 14.75 C-41.875 16.83333333 -43.4375 18.91666667 -45 21 C-44.45660208 16.43545749 -43.20536179 13.0271824 -41 9 C-40.34 9 -39.68 9 -39 9 C-38.773125 8.21625 -38.54625 7.4325 -38.3125 6.625 C-37 4 -37 4 -34.375 2.6875 C-33.59125 2.460625 -32.8075 2.23375 -32 2 C-32 1.34 -32 0.68 -32 0 C-20.91371803 -4.12056498 -11.08628197 -4.12056498 0 0 Z " fill="#65B0A2" transform="translate(130,41)"/>
<path d="M0 0 C0.33 0 0.66 0 1 0 C1 4.62 1 9.24 1 14 C-3.95 14 -8.9 14 -14 14 C-14 18.29 -14 22.58 -14 27 C-9.05 27 -4.1 27 1 27 C1.33 41.52 1.66 56.04 2 71 C2.66 71.33 3.32 71.66 4 72 C3.74089844 73.26263672 3.74089844 73.26263672 3.4765625 74.55078125 C2.96810176 78.23087004 3.08156889 81.48788883 3.375 85.1875 C3.46523437 86.39792969 3.55546875 87.60835938 3.6484375 88.85546875 C3.89179567 92.02349119 3.89179567 92.02349119 5 95 C7.76264289 95.59732819 10.16032769 96 13 96 C12.814375 95.21625 12.62875 94.4325 12.4375 93.625 C12 91 12 91 13 89 C13.04610824 86.13840747 13.04669546 83.29759671 13 80.4375 C12.95420986 77.61911671 12.95295617 74.81968962 13 72 C13.33 71.67 13.66 71.34 14 71 C14.23287008 69.31816052 14.41264166 67.6287584 14.5625 65.9375 C14.64628906 65.01839844 14.73007813 64.09929687 14.81640625 63.15234375 C14.90728516 62.08693359 14.90728516 62.08693359 15 61 C15.33 61 15.66 61 16 61 C16 73.54 16 86.08 16 99 C10.72 99 5.44 99 0 99 C0 75.57 0 52.14 0 28 C-4.95 28 -9.9 28 -15 28 C-15 23.05 -15 18.1 -15 13 C-10.05 13 -5.1 13 0 13 C0 8.71 0 4.42 0 0 Z " fill="#847596" transform="translate(84,64)"/>
<path d="M0 0 C0.33 0 0.66 0 1 0 C1 3.3 1 6.6 1 10 C2.27875 9.67 3.5575 9.34 4.875 9 C9.95645935 7.8528343 14.81444327 7.80513566 20 8 C20 7.34 20 6.68 20 6 C20.99 6 21.98 6 23 6 C23.33 7.65 23.66 9.3 24 11 C16.08 11 8.16 11 0 11 C0 7.37 0 3.74 0 0 Z " fill="#2F4F6A" transform="translate(100,67)"/>
<path d="M0 0 C0 0.99 0 1.98 0 3 C-0.66 3 -1.32 3 -2 3 C-3.81027062 8.29156027 -5.41078475 13.63904723 -7 19 C-7.33 18.34 -7.66 17.68 -8 17 C-8.66 16.67 -9.32 16.34 -10 16 C-8.68 12.7 -7.36 9.4 -6 6 C-6.66 6 -7.32 6 -8 6 C-6.98565881 3.46414701 -6.34981128 2.21863205 -4 0.75 C-2 0 -2 0 0 0 Z " fill="#1E4355" transform="translate(91,47)"/>
<path d="M0 0 C1.65 0.33 3.3 0.66 5 1 C4.01 2.98 3.02 4.96 2 7 C-2.95 7 -7.9 7 -13 7 C-13 6.34 -13 5.68 -13 5 C-8.49646738 3.24252386 -4.82360189 2.80705592 0 3 C0 2.01 0 1.02 0 0 Z " fill="#71B3B0" transform="translate(121,46)"/>
<path d="M0 0 C0.33 0 0.66 0 1 0 C1 8.91 1 17.82 1 27 C0.34 27 -0.32 27 -1 27 C-1.19386492 24.35448944 -1.38038267 21.70882217 -1.5625 19.0625 C-1.61857422 18.30775391 -1.67464844 17.55300781 -1.73242188 16.77539062 C-1.86176157 14.85254042 -1.93516912 12.92610452 -2 11 C-1.67 10.67 -1.34 10.34 -1 10 C-0.76712992 8.31816052 -0.58735834 6.6287584 -0.4375 4.9375 C-0.35371094 4.01839844 -0.26992187 3.09929687 -0.18359375 2.15234375 C-0.12300781 1.44207031 -0.06242187 0.73179688 0 0 Z " fill="#AF88AD" transform="translate(99,125)"/>
<path d="M0 0 C0.99 0 1.98 0 3 0 C2.01 3.63 1.02 7.26 0 11 C-0.99 11 -1.98 11 -3 11 C-3.625 8.1875 -3.625 8.1875 -4 5 C-3.34 4.01 -2.68 3.02 -2 2 C-1.34 2 -0.68 2 0 2 C0 1.34 0 0.68 0 0 Z " fill="#70ACAD" transform="translate(101,56)"/>
<path d="M0 0 C0.98484375 0.01804688 1.9696875 0.03609375 2.984375 0.0546875 C4.10585937 0.08949219 4.10585937 0.08949219 5.25 0.125 C2.2030371 1.81933918 -0.57821466 2.61967112 -4 3.25 C-5.33804688 3.50136719 -5.33804688 3.50136719 -6.703125 3.7578125 C-7.71632813 3.93957031 -7.71632813 3.93957031 -8.75 4.125 C-8.75 4.785 -8.75 5.445 -8.75 6.125 C-9.41 5.795 -10.07 5.465 -10.75 5.125 C-9.75 2.125 -9.75 2.125 -8.046875 0.9453125 C-5.24061169 -0.0569244 -2.97306264 -0.07078721 0 0 Z " fill="#234C59" transform="translate(106.75,36.875)"/>
<path d="M0 0 C1.65 0 3.3 0 5 0 C5 4.29 5 8.58 5 13 C4.01 13.495 4.01 13.495 3 14 C3.020625 12.7625 3.04125 11.525 3.0625 10.25 C3.09382051 4.55299064 3.09382051 4.55299064 0 0 Z " fill="#1B3F53" transform="translate(64,77)"/>
<path d="M0 0 C1.32 0 2.64 0 4 0 C4 4.29 4 8.58 4 13 C3.34 12.67 2.68 12.34 2 12 C1.18690098 8.08234111 0.62446732 4.82092412 2 1 C1.34 0.67 0.68 0.34 0 0 Z " fill="#89A5C9" transform="translate(120,78)"/>
<path d="M0 0 C1.32 0.33 2.64 0.66 4 1 C3.34 1.66 2.68 2.32 2 3 C1.59952556 5.32275177 1.2602896 7.65739357 1 10 C1.66 10.33 2.32 10.66 3 11 C2.67 11.66 2.34 12.32 2 13 C1.34 13 0.68 13 0 13 C0 8.71 0 4.42 0 0 Z " fill="#7AABB6" transform="translate(70,78)"/>
<path d="M0 0 C0.96661363 3.12180401 0.98988909 5.52083795 0.5625 8.75 C0.40974609 9.94882813 0.40974609 9.94882813 0.25390625 11.171875 C0.12822266 12.07679688 0.12822266 12.07679688 0 13 C-0.66 13 -1.32 13 -2 13 C-2.05416188 11.39620659 -2.09286638 9.79188594 -2.125 8.1875 C-2.14820312 7.29417969 -2.17140625 6.40085938 -2.1953125 5.48046875 C-2 3 -2 3 0 0 Z " fill="#BB80A6" transform="translate(87,149)"/>
<path d="M0 0 C1.65 0.33 3.3 0.66 5 1 C4.01 2.98 3.02 4.96 2 7 C1.01 6.67 0.02 6.34 -1 6 C-0.67 5.67 -0.34 5.34 0 5 C0.04063832 3.33382885 0.042721 1.66611905 0 0 Z " fill="#6DA7AC" transform="translate(121,46)"/>
<path d="M0 0 C1.32 0.33 2.64 0.66 4 1 C3.67 1.99 3.34 2.98 3 4 C2.34 4 1.68 4 1 4 C1 4.66 1 5.32 1 6 C0.01 6 -0.98 6 -2 6 C-1.34 4.02 -0.68 2.04 0 0 Z " fill="#264961" transform="translate(103,58)"/>
</svg>
